<svg xmlns="http://www.w3.org/2000/svg" width="243" height="212" viewBox="0 0 243 212" fill="none">
  <path d="M9.86569 45.8308C7.72729 45.3448 5.92909 45.9766 4.47109 47.7262L4.08229 48.1636C3.74209 48.6982 3.49909 49.2328 3.35329 49.6702C3.11029 50.545 3.25609 51.274 3.88789 51.76L4.17949 52.003C6.31789 52.246 8.11609 51.5656 9.52549 49.816C9.57409 49.7674 9.62269 49.6702 9.67129 49.6216C10.6433 48.358 10.7405 47.0944 9.96289 45.8794L9.81709 45.7822L9.86569 45.8308Z" fill="black"/>
  <path d="M4.2768 45.7822L5.6376 44.1297C6.318 43.3035 6.2694 42.2344 5.4918 40.9708C4.374 40.0474 2.5758 40.6792 0.0972 42.8662C0.0972 42.9148 0 42.9634 0 43.012V47.2888C1.4094 48.0178 2.8674 47.5318 4.2768 45.7822Z" fill="black"/>
  <path d="M32.9023 6.90226C34.3117 7.67986 35.9641 7.33966 37.2277 5.34706C38.5885 3.20866 38.5399 1.65345 37.7623 0.973053C36.1585 0.632853 34.6519 1.11885 33.6313 2.62545C32.2219 4.71525 32.0275 6.17325 32.6107 6.61065L32.9023 6.85365V6.90226Z" fill="black"/>
  <path d="M30.9581 14.4352C32.0759 15.3586 33.0479 16.1848 33.7283 16.9624C35.3807 18.955 36.1097 19.9756 36.3527 20.17C37.4219 21.0448 38.5397 20.899 39.8033 19.684L40.1921 19.2466C40.4351 16.1848 40.4351 14.581 40.3865 14.3866C40.3865 11.179 42.1361 9.6724 41.1155 8.8462C40.2893 8.1658 39.3659 8.26301 38.1509 8.45741C34.1171 9.04061 31.2983 8.4574 30.0347 9.6238C28.8197 10.8388 28.9655 12.8314 30.9095 14.3866L30.9581 14.4352Z" fill="black"/>
  <path d="M50.447 5.39554C48.3086 4.90954 46.5104 5.54134 45.0524 7.29094L44.6636 7.72834C43.5944 9.38074 43.5458 10.5471 44.4692 11.3247L44.7608 11.5677C46.8992 11.8593 48.6974 11.1303 50.1068 9.38074C51.2246 8.01994 51.3704 6.70775 50.5442 5.44415L50.3984 5.34695L50.447 5.39554Z" fill="black"/>
  <path d="M48.1624 16.4764C48.5998 15.9418 48.697 15.31 48.4054 14.6296L47.968 14.2408C46.4128 12.9772 44.1772 13.123 41.9416 15.4072C41.4556 15.8932 41.4556 16.6708 41.893 17.5942C43.4968 18.955 45.4894 18.712 47.8222 16.9138L48.211 16.4764H48.1624Z" fill="black"/>
  <path d="M40.3866 6.75643C41.8932 7.63123 43.3512 7.14522 44.8578 5.34702L46.2186 3.69462C46.899 2.86842 47.0448 1.65341 46.0728 0.535613C45.1008 -0.582187 42.9624 0.0496104 40.6782 2.43101C39.3174 3.88901 39.2688 5.39562 40.2408 6.65922L40.3866 6.75643Z" fill="black"/>
  <path d="M74.0664 43.1091C72.8028 45.2961 72.4626 46.6569 73.0458 47.0943L73.3374 47.3373C74.7468 48.1149 76.1562 47.5803 77.6628 45.7821C78.7806 43.4979 78.975 42.0885 78.1974 41.4081C76.5936 41.0679 75.2328 41.6511 74.0664 43.0605V43.1091Z" fill="black"/>
  <path d="M74.2123 57.4461C75.8647 59.4387 76.5937 60.4593 76.8367 60.6537C77.9059 61.5285 79.0237 61.3827 80.2873 60.1677L80.6761 59.7303C80.9191 56.6685 80.9191 55.0647 80.8705 54.8217C80.8705 54.1899 80.9191 53.6067 81.0163 53.1207C81.3565 51.4197 82.0855 50.3505 81.8425 49.6701C81.8425 49.5243 81.6967 49.4271 81.5995 49.2813C81.4051 49.1355 81.2107 48.9897 81.0163 48.9411C80.3359 48.6495 79.5583 48.7467 78.6349 48.9411C75.2815 49.4271 72.8515 49.1841 71.3449 49.7187C71.0533 49.8159 70.7617 49.9617 70.5187 50.1561C69.4495 51.4683 69.7411 53.0721 71.3935 54.9189C72.6571 55.6479 73.4833 56.6685 74.1637 57.4461H74.2123Z" fill="black"/>
  <path d="M9.86569 126.847C7.72729 126.361 5.92909 126.993 4.47109 128.742L4.08229 129.18C3.74209 129.714 3.49909 130.249 3.35329 130.686C3.11029 131.561 3.25609 132.29 3.88789 132.776L4.17949 133.019C6.31789 133.262 8.11609 132.582 9.52549 130.832C9.57409 130.784 9.62269 130.686 9.67129 130.638C10.6433 129.374 10.7405 128.111 9.96289 126.896L9.81709 126.798L9.86569 126.847Z" fill="black"/>
  <path d="M4.2768 126.798L5.6376 125.146C6.318 124.32 6.2694 123.25 5.4918 121.987C4.374 121.063 2.5758 121.695 0.0972 123.882C0.0972 123.882 0 123.979 0 124.028V128.305C1.4094 129.034 2.8674 128.548 4.2768 126.798Z" fill="black"/>
  <path d="M1.26348 58.0295C2.86728 59.3903 4.85988 59.1473 7.19269 57.3491L7.58148 56.9117C8.01888 56.3771 8.11609 55.7453 7.82448 55.0649L7.38708 54.6761C5.83188 53.4125 3.83928 53.8013 1.36068 55.8425C0.923285 56.3771 0.874685 57.1061 1.31208 58.0781L1.26348 58.0295Z" fill="black"/>
  <path d="M0.8262 49.7188C0.8262 49.7188 0.6804 49.4757 0.5832 49.3299C0.3888 49.1841 0.1944 49.0383 0 48.9897V53.1208C0.3402 51.4198 1.0692 50.3506 0.8262 49.6702V49.7188Z" fill="black"/>
  <path d="M33.6313 83.6416C32.2219 85.7314 32.0275 87.1894 32.6107 87.6268L32.9023 87.8698C34.3117 88.6474 35.9641 88.3072 37.2277 86.3146C38.5885 84.1762 38.5399 82.621 37.7623 81.9406C36.1585 81.6004 34.6519 82.0864 33.6313 83.593V83.6416Z" fill="black"/>
  <path d="M30.9581 95.4513C32.0759 96.3747 33.0479 97.2009 33.7283 97.9785C35.3807 99.9711 36.1097 100.992 36.3527 101.186C37.4219 102.061 38.5397 101.915 39.8033 100.7L40.1921 100.263C40.4351 97.2009 40.4351 95.5971 40.3865 95.3541C40.3865 92.1465 42.1361 90.6399 41.1155 89.8623C40.2893 89.1819 39.3659 89.2791 38.1509 89.4735C34.1171 90.0567 31.2983 89.4735 30.0347 90.6399C28.8197 91.8549 28.9655 93.8475 30.9095 95.4027L30.9581 95.4513Z" fill="black"/>
  <path d="M50.447 86.4119C48.3086 85.9259 46.5104 86.5577 45.0524 88.3073L44.6636 88.7447C43.5944 90.3971 43.5458 91.5635 44.4692 92.3411L44.7608 92.5841C46.8992 92.8271 48.6974 92.1467 50.1068 90.3971C51.2246 89.0363 51.3704 87.7241 50.5442 86.4605L50.3984 86.3633L50.447 86.4119Z" fill="black"/>
  <path d="M47.7736 97.9299L48.1624 97.4925C48.5998 96.9579 48.697 96.3262 48.4054 95.6458L47.968 95.2569C46.4128 93.9933 44.1772 94.1391 41.9416 96.4233C41.4556 96.9093 41.4556 97.6869 41.893 98.6589C43.4968 99.9711 45.4894 99.7767 47.8222 97.9785L47.7736 97.9299Z" fill="black"/>
  <path d="M46.2186 84.6622C46.899 83.836 47.0448 82.6209 46.0728 81.5031C45.1008 80.3853 42.9624 81.0171 40.6782 83.3985C39.3174 84.8565 39.2688 86.3146 40.2408 87.6268L40.3866 87.7725C41.8932 88.6473 43.3512 88.1613 44.8578 86.3631L46.2186 84.7108V84.6622Z" fill="black"/>
  <path d="M74.0664 124.077C72.8028 126.264 72.4626 127.625 73.0458 128.062L73.3374 128.305C74.7468 129.083 76.1562 128.548 77.6628 126.75C78.7806 124.466 78.975 123.008 78.1974 122.376C76.5936 122.084 75.2328 122.619 74.0664 124.028V124.077Z" fill="black"/>
  <path d="M74.2123 138.414C75.8647 140.406 76.5937 141.427 76.8367 141.621C77.9059 142.496 79.0237 142.35 80.2873 141.135L80.6761 140.698C80.9191 137.636 80.9191 136.032 80.8705 135.789C80.8705 135.158 80.9191 134.574 81.0163 134.088C81.3565 132.387 82.0855 131.318 81.8425 130.638C81.8425 130.492 81.6967 130.395 81.5995 130.249C81.4051 130.103 81.2107 130.006 81.0163 129.909C80.3359 129.617 79.5583 129.714 78.6349 129.86C75.2815 130.346 72.8515 130.103 71.3449 130.638C71.0533 130.735 70.7617 130.881 70.5187 131.027C69.4495 132.339 69.7411 133.943 71.3935 135.789C72.6571 136.518 73.4833 137.539 74.1637 138.317L74.2123 138.414Z" fill="black"/>
  <path d="M0 210.974V211.703H0.8262C0.8262 211.703 0.6804 211.46 0.5832 211.314C0.3888 211.168 0.1944 211.022 0 210.974Z" fill="black"/>
  <path d="M9.86592 207.863C7.72752 207.377 5.92932 208.009 4.47132 209.759L4.08252 210.196C3.74232 210.731 3.49932 211.265 3.35352 211.703H9.67152C10.6435 210.439 10.7407 209.176 9.96312 207.961L9.81732 207.863H9.86592Z" fill="black"/>
  <path d="M5.6376 206.114C6.318 205.287 6.2694 204.218 5.4918 202.955C4.374 202.031 2.5758 202.663 0.0972 204.85C0.0972 204.899 0 204.947 0 204.996V209.273C1.4094 210.002 2.8674 209.516 4.2768 207.766L5.6376 206.114Z" fill="black"/>
  <path d="M1.26348 139.046C2.86728 140.406 4.85988 140.163 7.19269 138.365L7.58148 137.928C8.01888 137.393 8.11609 136.761 7.82448 136.081L7.38708 135.692C5.83188 134.429 3.83928 134.817 1.36068 136.859C0.923285 137.393 0.874685 138.122 1.31208 139.094L1.26348 139.046Z" fill="black"/>
  <path d="M0.8262 130.687C0.8262 130.687 0.6804 130.444 0.5832 130.298C0.3888 130.152 0.1944 130.055 0 129.958V134.089C0.3402 132.388 1.0692 131.318 0.8262 130.638V130.687Z" fill="black"/>
  <path d="M33.6313 164.658C32.2219 166.748 32.0275 168.206 32.6107 168.643L32.9023 168.886C34.3117 169.664 35.9641 169.323 37.2277 167.331C38.5885 165.192 38.5399 163.589 37.7623 162.957C36.1585 162.665 34.6519 163.103 33.6313 164.609V164.658Z" fill="black"/>
  <path d="M41.1643 170.879C40.3381 170.198 39.4147 170.295 38.1997 170.49C34.1659 171.073 31.3471 170.49 30.0835 171.656C28.8685 172.871 29.0143 174.864 30.9583 176.419C32.0761 177.342 33.0481 178.169 33.7285 178.946C35.3809 180.939 36.1099 181.959 36.3529 182.154C37.4221 183.029 38.5399 182.883 39.8035 181.668L40.1924 181.231C40.4354 178.169 40.4354 176.614 40.3868 176.371C40.3868 173.163 42.1363 171.656 41.1157 170.83L41.1643 170.879Z" fill="black"/>
  <path d="M50.447 167.379C48.3086 166.893 46.5104 167.525 45.0524 169.275L44.6636 169.712C43.5944 171.365 43.5458 172.531 44.4692 173.309L44.7608 173.552C46.8992 173.843 48.6974 173.114 50.1068 171.365C51.2246 170.004 51.3704 168.74 50.5442 167.428L50.3984 167.331L50.447 167.379Z" fill="black"/>
  <path d="M47.9197 176.225C46.3645 174.961 44.1289 175.107 41.8933 177.391C41.4073 177.877 41.4073 178.655 41.8447 179.627C43.4485 180.939 45.4411 180.745 47.7739 178.946L48.1627 178.509C48.6001 177.974 48.6973 177.343 48.4057 176.662L47.9683 176.273L47.9197 176.225Z" fill="black"/>
  <path d="M46.2186 165.679C46.899 164.852 47.0448 163.637 46.0728 162.519C45.1008 161.402 42.9624 162.033 40.6782 164.415C39.3174 165.824 39.2688 167.331 40.2408 168.643L40.3866 168.789C41.8932 169.664 43.3512 169.178 44.8578 167.38L46.2186 165.727V165.679Z" fill="black"/>
  <path d="M74.0664 205.093C72.8028 207.28 72.4626 208.641 73.0458 209.078L73.3374 209.321C74.7468 210.099 76.1562 209.564 77.6628 207.766C78.7806 205.482 78.975 204.072 78.1974 203.392C76.5936 203.052 75.2328 203.635 74.0664 205.044V205.093Z" fill="black"/>
  <path d="M90.8818 45.8308C88.7434 45.3448 86.9452 45.9766 85.4872 47.7262L85.0984 48.1636C84.7582 48.6982 84.5152 49.2328 84.3694 49.6702C84.1264 50.545 84.2722 51.274 84.904 51.76L85.1956 52.003C87.334 52.246 89.1322 51.5656 90.5416 49.816C90.5902 49.7674 90.6388 49.6702 90.6874 49.6216C91.6594 48.358 91.7566 47.0944 90.979 45.8794L90.8332 45.7822L90.8818 45.8308Z" fill="black"/>
  <path d="M86.6537 44.1297C87.3341 43.3035 87.2855 42.2344 86.5079 40.9708C85.3901 40.0474 83.5919 40.6792 81.1133 42.8662C81.1133 42.9148 81.0161 42.9634 81.0161 43.012C79.8497 44.47 79.7525 45.8307 80.6759 47.0943L80.8217 47.2402C80.8217 47.2402 80.9189 47.2888 81.0161 47.3374C82.4255 48.0664 83.8835 47.5804 85.2929 45.8308L86.6537 44.1784V44.1297Z" fill="black"/>
  <path d="M113.87 6.90226C115.279 7.67986 116.931 7.33966 118.195 5.34706C119.556 3.20866 119.507 1.65345 118.73 0.973053C117.126 0.632853 115.619 1.11885 114.599 2.62545C113.189 4.71525 112.995 6.17325 113.578 6.61065L113.87 6.85365V6.90226Z" fill="black"/>
  <path d="M111.974 14.4352C113.092 15.3586 114.064 16.1848 114.793 16.9624C116.445 18.955 117.174 19.9756 117.417 20.17C118.438 21.0448 119.604 20.899 120.868 19.684L121.257 19.2466C121.5 16.1848 121.5 14.581 121.5 14.3866C121.5 11.179 123.249 9.6724 122.229 8.8462C121.403 8.1658 120.479 8.26301 119.264 8.45741C115.23 9.04061 112.412 8.4574 111.148 9.6238C109.933 10.8388 110.079 12.8314 112.023 14.3866L111.974 14.4352Z" fill="black"/>
  <path d="M131.414 5.39554C129.276 4.90954 127.478 5.54134 126.02 7.29094L125.631 7.72834C124.562 9.38074 124.513 10.5471 125.436 11.3247L125.728 11.5677C127.867 11.8593 129.665 11.1303 131.074 9.38074C132.192 8.01994 132.338 6.70775 131.511 5.44415L131.366 5.34695L131.414 5.39554Z" fill="black"/>
  <path d="M129.13 16.4764C129.568 15.9418 129.665 15.31 129.373 14.6296L128.936 14.2408C127.381 12.9772 125.145 13.123 122.909 15.4072C122.423 15.8932 122.423 16.6708 122.861 17.5942C124.465 18.955 126.457 18.712 128.79 16.9138L129.179 16.4764H129.13Z" fill="black"/>
  <path d="M121.403 6.75643C122.909 7.63123 124.367 7.14522 125.874 5.34702L127.235 3.69462C127.915 2.86842 128.061 1.65341 127.089 0.535613C126.117 -0.582187 123.979 0.0496104 121.694 2.43101C120.334 3.88901 120.285 5.39562 121.257 6.65922L121.403 6.75643Z" fill="black"/>
  <path d="M155.034 43.1091C153.771 45.2961 153.43 46.6569 154.014 47.0943L154.305 47.3373C155.715 48.1149 157.124 47.5803 158.631 45.7821C159.748 43.4979 159.943 42.0885 159.165 41.4081C157.561 41.0679 156.201 41.6511 155.034 43.0605V43.1091Z" fill="black"/>
  <path d="M155.18 57.4461C156.832 59.4387 157.561 60.4593 157.804 60.6537C158.873 61.5285 159.991 61.3827 161.255 60.1677L161.644 59.7303C161.887 56.6685 161.887 55.0647 161.887 54.8217C161.887 54.1899 161.935 53.6067 162.032 53.1207C162.373 51.4197 163.102 50.3505 162.859 49.6701C162.859 49.5243 162.713 49.4271 162.616 49.2813C162.421 49.1355 162.227 48.9897 162.032 48.9411C161.352 48.6495 160.574 48.7467 159.651 48.9411C156.298 49.4271 153.868 49.1841 152.361 49.7187C152.069 49.8159 151.778 49.9617 151.535 50.1561C150.466 51.4683 150.757 53.0721 152.41 54.9189C153.673 55.6479 154.499 56.6685 155.18 57.4461Z" fill="black"/>
  <path d="M90.8818 126.847C88.7434 126.361 86.9452 126.993 85.4872 128.742L85.0984 129.18C84.7582 129.714 84.5152 130.249 84.3694 130.686C84.1264 131.561 84.2722 132.29 84.904 132.776L85.1956 133.019C87.334 133.262 89.1322 132.582 90.5416 130.832C90.5902 130.784 90.6388 130.686 90.6874 130.638C91.6594 129.374 91.7566 128.111 90.979 126.896L90.8332 126.798L90.8818 126.847Z" fill="black"/>
  <path d="M86.6537 125.146C87.3341 124.32 87.2855 123.25 86.5079 121.987C85.3901 121.063 83.5919 121.695 81.1133 123.882C81.1133 123.882 81.0161 123.979 81.0161 124.028C79.8497 125.486 79.7525 126.847 80.6759 128.11L80.8217 128.256C80.8217 128.256 80.9189 128.305 81.0161 128.353C82.4255 129.082 83.8835 128.596 85.2929 126.847L86.6537 125.194V125.146Z" fill="black"/>
  <path d="M88.5493 56.9117C88.9867 56.3771 89.0839 55.7453 88.7923 55.0649L88.3549 54.6761C86.7997 53.4125 84.8071 53.8013 82.3285 55.8425C81.8911 56.3771 81.8425 57.1061 82.2799 58.0781C83.8837 59.4389 85.8763 59.1959 88.2091 57.3977L88.5979 56.9603L88.5493 56.9117Z" fill="black"/>
  <path d="M114.599 83.6416C113.189 85.7314 112.995 87.1894 113.578 87.6268L113.87 87.8698C115.279 88.6474 116.931 88.3072 118.195 86.3146C119.556 84.1762 119.507 82.621 118.73 81.9406C117.126 81.6004 115.619 82.0864 114.599 83.593V83.6416Z" fill="black"/>
  <path d="M111.974 95.4513C113.092 96.3747 114.064 97.2009 114.793 97.9785C116.445 99.9711 117.174 100.992 117.417 101.186C118.438 102.061 119.604 101.915 120.868 100.7L121.257 100.263C121.5 97.2009 121.5 95.5971 121.5 95.3541C121.5 92.1465 123.249 90.6399 122.229 89.8623C121.403 89.1819 120.479 89.2791 119.264 89.4735C115.23 90.0567 112.412 89.4735 111.148 90.6399C109.933 91.8549 110.079 93.8475 112.023 95.4027L111.974 95.4513Z" fill="black"/>
  <path d="M131.414 86.4119C129.276 85.9259 127.478 86.5577 126.02 88.3073L125.631 88.7447C124.562 90.3971 124.513 91.5635 125.436 92.3411L125.728 92.5841C127.867 92.8271 129.665 92.1467 131.074 90.3971C132.192 89.0363 132.338 87.7241 131.511 86.4605L131.366 86.3633L131.414 86.4119Z" fill="black"/>
  <path d="M128.741 97.9299L129.13 97.4925C129.568 96.9579 129.665 96.3262 129.373 95.6458L128.936 95.2569C127.381 93.9933 125.145 94.1391 122.909 96.4233C122.423 96.9093 122.423 97.6869 122.861 98.6589C124.465 99.9711 126.457 99.7767 128.79 97.9785L128.741 97.9299Z" fill="black"/>
  <path d="M127.235 84.6622C127.915 83.836 128.061 82.6209 127.089 81.5031C126.117 80.3853 123.979 81.0171 121.694 83.3985C120.334 84.8565 120.285 86.3146 121.257 87.6268L121.403 87.7725C122.909 88.6473 124.367 88.1613 125.874 86.3631L127.235 84.7108V84.6622Z" fill="black"/>
  <path d="M155.034 124.077C153.771 126.264 153.43 127.625 154.014 128.062L154.305 128.305C155.715 129.083 157.124 128.548 158.631 126.75C159.748 124.466 159.943 123.008 159.165 122.376C157.561 122.084 156.201 122.619 155.034 124.028V124.077Z" fill="black"/>
  <path d="M155.18 138.414C156.832 140.406 157.561 141.427 157.804 141.621C158.873 142.496 159.991 142.35 161.255 141.135L161.644 140.698C161.887 137.636 161.887 136.032 161.887 135.789C161.887 135.158 161.935 134.574 162.032 134.088C162.373 132.387 163.102 131.318 162.859 130.638C162.859 130.492 162.713 130.395 162.616 130.249C162.421 130.103 162.227 130.006 162.032 129.909C161.352 129.617 160.574 129.714 159.651 129.86C156.298 130.346 153.868 130.103 152.361 130.638C152.069 130.735 151.778 130.881 151.535 131.027C150.466 132.339 150.757 133.943 152.41 135.789C153.673 136.518 154.499 137.539 155.18 138.317V138.414Z" fill="black"/>
  <path d="M81.0161 210.973C80.3357 210.682 79.5581 210.779 78.6347 210.925C75.2813 211.411 72.8513 211.168 71.3447 211.703H81.8909C81.8909 211.703 81.7451 211.459 81.6479 211.314C81.4535 211.168 81.2591 211.022 81.0647 210.973H81.0161Z" fill="black"/>
  <path d="M90.882 207.863C88.7436 207.377 86.9454 208.009 85.4874 209.759L85.0986 210.196C84.7584 210.731 84.5154 211.265 84.3696 211.703H90.6876C91.6596 210.439 91.7568 209.176 90.9792 207.961L90.8334 207.863H90.882Z" fill="black"/>
  <path d="M86.6537 206.114C87.3341 205.287 87.2855 204.218 86.5079 202.955C85.3901 202.031 83.5919 202.663 81.1133 204.85C81.1133 204.899 81.0161 204.947 81.0161 204.996C79.8497 206.454 79.7525 207.815 80.6759 209.078L80.8217 209.224C80.8217 209.224 80.9189 209.273 81.0161 209.321C82.4255 210.05 83.8835 209.564 85.2929 207.815L86.6537 206.162V206.114Z" fill="black"/>
  <path d="M82.2796 139.046C83.8834 140.406 85.876 140.163 88.2088 138.365L88.5976 137.928C89.035 137.393 89.1322 136.761 88.8406 136.081L88.4032 135.692C86.848 134.429 84.8554 134.817 82.3768 136.859C81.9394 137.393 81.8908 138.122 82.3282 139.094L82.2796 139.046Z" fill="black"/>
  <path d="M114.599 164.658C113.189 166.748 112.995 168.206 113.578 168.643L113.87 168.886C115.279 169.664 116.931 169.323 118.195 167.331C119.556 165.192 119.507 163.589 118.73 162.957C117.126 162.665 115.619 163.103 114.599 164.609V164.658Z" fill="black"/>
  <path d="M122.132 170.879C121.305 170.198 120.382 170.295 119.167 170.49C115.133 171.073 112.314 170.49 111.051 171.656C109.836 172.871 109.982 174.864 111.926 176.419C113.043 177.342 114.015 178.169 114.744 178.946C116.397 180.939 117.126 181.959 117.369 182.154C118.389 183.029 119.556 182.883 120.819 181.668L121.208 181.231C121.451 178.169 121.451 176.614 121.451 176.371C121.451 173.163 123.201 171.656 122.18 170.83L122.132 170.879Z" fill="black"/>
  <path d="M131.414 167.379C129.276 166.893 127.478 167.525 126.02 169.275L125.631 169.712C124.562 171.365 124.513 172.531 125.436 173.309L125.728 173.552C127.867 173.843 129.665 173.114 131.074 171.365C132.192 170.004 132.338 168.74 131.511 167.428L131.366 167.331L131.414 167.379Z" fill="black"/>
  <path d="M128.936 176.225C127.381 174.961 125.145 175.107 122.909 177.391C122.423 177.877 122.423 178.655 122.861 179.627C124.465 180.939 126.457 180.745 128.79 178.946L129.179 178.509C129.616 177.974 129.713 177.343 129.422 176.662L128.984 176.273L128.936 176.225Z" fill="black"/>
  <path d="M127.235 165.679C127.915 164.852 128.061 163.637 127.089 162.519C126.117 161.402 123.979 162.033 121.694 164.415C120.334 165.824 120.285 167.331 121.257 168.643L121.403 168.789C122.909 169.664 124.367 169.178 125.874 167.38L127.235 165.727V165.679Z" fill="black"/>
  <path d="M155.034 205.093C153.771 207.28 153.43 208.641 154.014 209.078L154.305 209.321C155.715 210.099 157.124 209.564 158.631 207.766C159.748 205.482 159.943 204.072 159.165 203.392C157.561 203.052 156.201 203.635 155.034 205.044V205.093Z" fill="black"/>
  <path d="M171.85 45.8308C169.711 45.3448 167.913 45.9766 166.455 47.7262L166.066 48.1636C165.726 48.6982 165.483 49.2328 165.337 49.6702C165.094 50.545 165.24 51.274 165.872 51.76L166.163 52.003C168.302 52.246 170.1 51.5656 171.509 49.816C171.558 49.7674 171.607 49.6702 171.655 49.6216C172.627 48.358 172.724 47.0944 171.947 45.8794L171.801 45.7822L171.85 45.8308Z" fill="black"/>
  <path d="M167.67 44.1297C168.399 43.3035 168.302 42.2344 167.524 40.9708C166.406 40.0474 164.608 40.6792 162.129 42.8662C162.129 42.9148 162.032 42.9634 162.032 43.012C160.866 44.47 160.769 45.8307 161.692 47.0943L161.838 47.2402C161.838 47.2402 161.935 47.2888 162.032 47.3374C163.442 48.0664 164.9 47.5804 166.309 45.8308L167.67 44.1784V44.1297Z" fill="black"/>
  <path d="M194.886 6.90226C196.296 7.67986 197.948 7.33966 199.212 5.34706C200.572 3.20866 200.524 1.65345 199.746 0.973053C198.142 0.632853 196.636 1.11885 195.615 2.62545C194.206 4.71525 194.011 6.17325 194.595 6.61065L194.886 6.85365V6.90226Z" fill="black"/>
  <path d="M192.991 14.4352C194.109 15.3586 195.081 16.1848 195.761 16.9624C197.413 18.955 198.142 19.9756 198.385 20.17C199.455 21.0448 200.572 20.899 201.836 19.684L202.225 19.2466C202.468 16.1848 202.468 14.581 202.419 14.3866C202.419 11.179 204.169 9.6724 203.148 8.8462C202.322 8.1658 201.399 8.26301 200.184 8.45741C196.15 9.04061 193.331 8.4574 192.067 9.6238C190.852 10.8388 190.998 12.8314 192.942 14.3866L192.991 14.4352Z" fill="black"/>
  <path d="M212.43 5.39554C210.292 4.90954 208.494 5.54134 207.036 7.29094L206.647 7.72834C205.578 9.38074 205.529 10.5471 206.453 11.3247L206.744 11.5677C208.883 11.8593 210.681 11.1303 212.09 9.38074C213.208 8.01994 213.354 6.70775 212.528 5.44415L212.382 5.34695L212.43 5.39554Z" fill="black"/>
  <path d="M210.146 16.4764C210.584 15.9418 210.681 15.31 210.389 14.6296L209.952 14.2408C208.397 12.9772 206.161 13.123 203.925 15.4072C203.439 15.8932 203.44 16.6708 203.877 17.5942C205.481 18.955 207.473 18.712 209.806 16.9138L210.195 16.4764H210.146Z" fill="black"/>
  <path d="M202.371 6.75643C203.877 7.63123 205.335 7.14522 206.842 5.34702L208.203 3.69462C208.932 2.86842 209.029 1.65341 208.057 0.535613C207.085 -0.582187 204.946 0.0496104 202.662 2.43101C201.301 3.88901 201.253 5.39562 202.225 6.65922L202.371 6.75643Z" fill="black"/>
  <path d="M242.66 47.0458L242.806 47.1916C242.806 47.1916 242.903 47.2401 243 47.2887V43.012C241.834 44.47 241.736 45.8307 242.66 47.0943V47.0458Z" fill="black"/>
  <path d="M240.619 48.9411C237.265 49.4271 234.835 49.1841 233.329 49.7187C233.037 49.8159 232.746 49.9617 232.503 50.1561C231.433 51.4683 231.725 53.0721 233.377 54.9189C234.641 55.6479 235.467 56.6685 236.148 57.4461C237.8 59.4387 238.529 60.4593 238.772 60.6537C239.841 61.5285 240.959 61.3827 242.223 60.1677L242.611 59.7303C242.854 56.6685 242.854 55.0647 242.806 54.8217C242.806 54.1899 242.854 53.6067 242.952 53.1207V48.9897C242.271 48.6981 241.494 48.7953 240.57 48.9897L240.619 48.9411Z" fill="black"/>
  <path d="M239.647 45.7821C240.764 43.4979 240.959 42.0885 240.181 41.4081C238.577 41.0679 237.217 41.6511 236.05 43.0605C234.787 45.2475 234.446 46.6083 235.03 47.0457L235.321 47.2887C236.731 48.0663 238.14 47.5317 239.647 45.7335V45.7821Z" fill="black"/>
  <path d="M171.85 126.847C169.711 126.361 167.913 126.993 166.455 128.742L166.066 129.18C165.726 129.714 165.483 130.249 165.337 130.686C165.094 131.561 165.24 132.29 165.872 132.776L166.163 133.019C168.302 133.262 170.1 132.582 171.509 130.832C171.558 130.784 171.607 130.686 171.655 130.638C172.627 129.374 172.724 128.111 171.947 126.896L171.801 126.798L171.85 126.847Z" fill="black"/>
  <path d="M167.67 125.146C168.399 124.32 168.302 123.25 167.524 121.987C166.406 121.063 164.608 121.695 162.129 123.882C162.129 123.882 162.032 123.979 162.032 124.028C160.866 125.486 160.769 126.847 161.692 128.11L161.838 128.256C161.838 128.256 161.935 128.305 162.032 128.353C163.442 129.082 164.9 128.596 166.309 126.847L167.67 125.194V125.146Z" fill="black"/>
  <path d="M169.565 56.9117C170.003 56.3771 170.1 55.7453 169.808 55.0649L169.371 54.6761C167.816 53.4125 165.823 53.8013 163.345 55.8425C162.907 56.3771 162.859 57.1061 163.296 58.0781C164.9 59.4389 166.892 59.1959 169.225 57.3977L169.614 56.9603L169.565 56.9117Z" fill="black"/>
  <path d="M195.615 83.6416C194.206 85.7314 194.011 87.1894 194.595 87.6268L194.886 87.8698C196.296 88.6474 197.948 88.3072 199.212 86.3146C200.572 84.1762 200.524 82.621 199.746 81.9406C198.142 81.6004 196.636 82.0864 195.615 83.593V83.6416Z" fill="black"/>
  <path d="M192.991 95.4513C194.109 96.3747 195.081 97.2009 195.761 97.9785C197.413 99.9711 198.142 100.992 198.385 101.186C199.455 102.061 200.572 101.915 201.836 100.7L202.225 100.263C202.468 97.2009 202.468 95.5971 202.419 95.3541C202.419 92.1465 204.169 90.6399 203.148 89.8623C202.322 89.1819 201.399 89.2791 200.184 89.4735C196.15 90.0567 193.331 89.4735 192.067 90.6399C190.852 91.8549 190.998 93.8475 192.942 95.4027L192.991 95.4513Z" fill="black"/>
  <path d="M212.43 86.4119C210.292 85.9259 208.494 86.5577 207.036 88.3073L206.647 88.7447C205.578 90.3971 205.529 91.5635 206.453 92.3411L206.744 92.5841C208.883 92.8271 210.681 92.1467 212.09 90.3971C213.208 89.0363 213.354 87.7241 212.528 86.4605L212.382 86.3633L212.43 86.4119Z" fill="black"/>
  <path d="M209.758 97.9299L210.146 97.4925C210.584 96.9579 210.681 96.3262 210.389 95.6458L209.952 95.2569C208.397 93.9933 206.161 94.1391 203.925 96.4233C203.439 96.9093 203.44 97.6869 203.877 98.6589C205.481 99.9711 207.473 99.7767 209.806 97.9785L209.758 97.9299Z" fill="black"/>
  <path d="M208.203 84.6622C208.932 83.836 209.029 82.6209 208.057 81.5031C207.085 80.3853 204.946 81.0171 202.662 83.3985C201.301 84.8565 201.253 86.3146 202.225 87.6268L202.371 87.7725C203.877 88.6473 205.335 88.1613 206.842 86.3631L208.203 84.7108V84.6622Z" fill="black"/>
  <path d="M242.66 128.062L242.806 128.208C242.806 128.208 242.903 128.257 243 128.305V124.028C241.834 125.486 241.736 126.847 242.66 128.111V128.062Z" fill="black"/>
  <path d="M240.619 129.909C237.265 130.395 234.835 130.152 233.329 130.686C233.037 130.784 232.746 130.929 232.503 131.075C231.433 132.387 231.725 133.991 233.377 135.838C234.641 136.567 235.467 137.588 236.148 138.365C237.8 140.358 238.529 141.378 238.772 141.573C239.841 142.448 240.959 142.302 242.223 141.087L242.611 140.649C242.854 137.588 242.854 135.984 242.806 135.741C242.806 135.109 242.854 134.526 242.952 134.04V129.909C242.271 129.617 241.494 129.714 240.57 129.86L240.619 129.909Z" fill="black"/>
  <path d="M239.647 126.798C240.764 124.514 240.959 123.056 240.181 122.424C238.577 122.133 237.217 122.667 236.05 124.077C234.787 126.264 234.446 127.625 235.03 128.062L235.321 128.305C236.731 129.083 238.14 128.548 239.647 126.75V126.798Z" fill="black"/>
  <path d="M161.984 210.973C161.304 210.682 160.526 210.779 159.602 210.925C156.249 211.411 153.819 211.168 152.312 211.703H162.859C162.859 211.703 162.713 211.459 162.616 211.314C162.421 211.168 162.227 211.022 162.033 210.973H161.984Z" fill="black"/>
  <path d="M171.85 207.863C169.711 207.377 167.913 208.009 166.455 209.759L166.066 210.196C165.726 210.731 165.483 211.265 165.337 211.703H171.655C172.627 210.439 172.725 209.176 171.947 207.961L171.801 207.863H171.85Z" fill="black"/>
  <path d="M167.67 206.114C168.399 205.287 168.302 204.218 167.524 202.955C166.406 202.031 164.608 202.663 162.129 204.85C162.129 204.899 162.032 204.947 162.032 204.996C160.866 206.454 160.769 207.815 161.692 209.078L161.838 209.224C161.838 209.224 161.935 209.273 162.032 209.321C163.442 210.05 164.9 209.564 166.309 207.815L167.67 206.162V206.114Z" fill="black"/>
  <path d="M163.247 139.046C164.851 140.406 166.844 140.163 169.177 138.365L169.565 137.928C170.003 137.393 170.1 136.761 169.808 136.081L169.371 135.692C167.816 134.429 165.823 134.817 163.345 136.859C162.907 137.393 162.859 138.122 163.296 139.094L163.247 139.046Z" fill="black"/>
  <path d="M195.615 164.658C194.206 166.748 194.011 168.206 194.595 168.643L194.886 168.886C196.296 169.664 197.948 169.323 199.212 167.331C200.572 165.192 200.524 163.589 199.746 162.957C198.142 162.665 196.636 163.103 195.615 164.609V164.658Z" fill="black"/>
  <path d="M203.148 170.879C202.322 170.198 201.399 170.295 200.184 170.49C196.15 171.073 193.331 170.49 192.067 171.656C190.852 172.871 190.998 174.864 192.942 176.419C194.06 177.342 195.032 178.169 195.712 178.946C197.365 180.939 198.094 181.959 198.337 182.154C199.406 183.029 200.524 182.883 201.787 181.668L202.176 181.231C202.419 178.169 202.419 176.614 202.371 176.371C202.371 173.163 204.12 171.656 203.1 170.83L203.148 170.879Z" fill="black"/>
  <path d="M212.43 167.379C210.292 166.893 208.494 167.525 207.036 169.275L206.647 169.712C205.578 171.365 205.529 172.531 206.453 173.309L206.744 173.552C208.883 173.843 210.681 173.114 212.09 171.365C213.208 170.004 213.354 168.74 212.528 167.428L212.382 167.331L212.43 167.379Z" fill="black"/>
  <path d="M209.904 176.225C208.348 174.961 206.113 175.107 203.877 177.391C203.391 177.877 203.391 178.655 203.829 179.627C205.432 180.939 207.425 180.745 209.758 178.946L210.147 178.509C210.584 177.974 210.681 177.343 210.39 176.662L209.952 176.273L209.904 176.225Z" fill="black"/>
  <path d="M208.203 165.679C208.932 164.852 209.029 163.637 208.057 162.519C207.085 161.402 204.946 162.033 202.662 164.415C201.301 165.824 201.253 167.331 202.225 168.643L202.371 168.789C203.877 169.664 205.335 169.178 206.842 167.38L208.203 165.727V165.679Z" fill="black"/>
  <path d="M242.66 209.078L242.806 209.224C242.806 209.224 242.903 209.273 243 209.321V205.044C241.834 206.502 241.736 207.863 242.66 209.127V209.078Z" fill="black"/>
  <path d="M240.619 210.925C237.265 211.411 234.835 211.168 233.329 211.703H243V210.973C242.32 210.682 241.542 210.779 240.619 210.925Z" fill="black"/>
  <path d="M239.647 207.815C240.764 205.53 240.959 204.121 240.181 203.441C238.577 203.1 237.217 203.684 236.05 205.093C234.787 207.28 234.446 208.641 235.03 209.078L235.321 209.321C236.731 210.099 238.14 209.564 239.647 207.766V207.815Z" fill="black"/>
</svg>